<mxfile host="app.diagrams.net" modified="2023-05-08T13:02:47.958Z" agent="Mozilla/5.0 (Windows NT 10.0; Win64; x64) AppleWebKit/537.36 (KHTML, like Gecko) Chrome/113.0.0.0 Safari/537.36" etag="f5jrLvmn8rxFMCcBpFZx" version="21.2.9" type="github">
  <diagram id="R2lEEEUBdFMjLlhIrx00" name="Page-1">
    <mxGraphModel dx="1114" dy="1688" grid="1" gridSize="10" guides="1" tooltips="1" connect="1" arrows="1" fold="1" page="1" pageScale="1" pageWidth="850" pageHeight="1100" math="0" shadow="0" extFonts="Permanent Marker^https://fonts.googleapis.com/css?family=Permanent+Marker">
      <root>
        <mxCell id="0" />
        <mxCell id="1" parent="0" />
        <mxCell id="-KVNnS1zJck9LHDw2q6c-11" value="" style="rounded=1;whiteSpace=wrap;html=1;fillColor=none;" vertex="1" parent="1">
          <mxGeometry x="20" y="60" width="770" height="740" as="geometry" />
        </mxCell>
        <mxCell id="-KVNnS1zJck9LHDw2q6c-1" value="" style="rounded=1;whiteSpace=wrap;html=1;" vertex="1" parent="1">
          <mxGeometry x="30" y="150" width="750" height="480" as="geometry" />
        </mxCell>
        <mxCell id="-KVNnS1zJck9LHDw2q6c-2" value="VPC" style="text;html=1;strokeColor=none;fillColor=none;align=center;verticalAlign=middle;whiteSpace=wrap;rounded=0;" vertex="1" parent="1">
          <mxGeometry x="50" y="160" width="60" height="30" as="geometry" />
        </mxCell>
        <mxCell id="-KVNnS1zJck9LHDw2q6c-4" value="" style="image;aspect=fixed;perimeter=ellipsePerimeter;html=1;align=center;shadow=0;dashed=0;spacingTop=3;image=img/lib/active_directory/internet_globe.svg;" vertex="1" parent="1">
          <mxGeometry x="400.51" y="-10" width="50" height="50" as="geometry" />
        </mxCell>
        <mxCell id="-KVNnS1zJck9LHDw2q6c-5" value="" style="outlineConnect=0;dashed=0;verticalLabelPosition=bottom;verticalAlign=top;align=center;html=1;shape=mxgraph.aws3.application_load_balancer;fillColor=#F58536;gradientColor=none;" vertex="1" parent="1">
          <mxGeometry x="391" y="210" width="69" height="72" as="geometry" />
        </mxCell>
        <mxCell id="-KVNnS1zJck9LHDw2q6c-6" value="http:80" style="endArrow=classic;html=1;rounded=0;exitX=0.5;exitY=1;exitDx=0;exitDy=0;" edge="1" parent="1" source="-KVNnS1zJck9LHDw2q6c-4" target="-KVNnS1zJck9LHDw2q6c-5">
          <mxGeometry width="50" height="50" relative="1" as="geometry">
            <mxPoint x="410" y="240" as="sourcePoint" />
            <mxPoint x="460" y="190" as="targetPoint" />
          </mxGeometry>
        </mxCell>
        <mxCell id="-KVNnS1zJck9LHDw2q6c-7" value="" style="rounded=1;arcSize=10;dashed=1;fillColor=none;gradientColor=none;dashPattern=8 3 1 3;strokeWidth=2;" vertex="1" parent="1">
          <mxGeometry x="352.88" y="360" width="145.25" height="145.25" as="geometry" />
        </mxCell>
        <mxCell id="-KVNnS1zJck9LHDw2q6c-8" value="http:80&lt;br&gt;" style="endArrow=classic;html=1;rounded=0;exitX=0.5;exitY=1;exitDx=0;exitDy=0;exitPerimeter=0;" edge="1" parent="1" source="-KVNnS1zJck9LHDw2q6c-5" target="-KVNnS1zJck9LHDw2q6c-7">
          <mxGeometry width="50" height="50" relative="1" as="geometry">
            <mxPoint x="410" y="370" as="sourcePoint" />
            <mxPoint x="460" y="320" as="targetPoint" />
          </mxGeometry>
        </mxCell>
        <mxCell id="-KVNnS1zJck9LHDw2q6c-16" style="edgeStyle=orthogonalEdgeStyle;rounded=0;orthogonalLoop=1;jettySize=auto;html=1;exitX=1;exitY=0.5;exitDx=0;exitDy=0;exitPerimeter=0;" edge="1" parent="1" source="-KVNnS1zJck9LHDw2q6c-9" target="-KVNnS1zJck9LHDw2q6c-10">
          <mxGeometry relative="1" as="geometry" />
        </mxCell>
        <mxCell id="-KVNnS1zJck9LHDw2q6c-18" value="cloudwatch agent (to send logs" style="edgeLabel;html=1;align=center;verticalAlign=middle;resizable=0;points=[];" vertex="1" connectable="0" parent="-KVNnS1zJck9LHDw2q6c-16">
          <mxGeometry x="-0.4094" y="-1" relative="1" as="geometry">
            <mxPoint as="offset" />
          </mxGeometry>
        </mxCell>
        <mxCell id="-KVNnS1zJck9LHDw2q6c-9" value="" style="outlineConnect=0;dashed=0;verticalLabelPosition=bottom;verticalAlign=top;align=center;html=1;shape=mxgraph.aws3.ec2;fillColor=#F58534;gradientColor=none;" vertex="1" parent="1">
          <mxGeometry x="383.5" y="386.13" width="76.5" height="93" as="geometry" />
        </mxCell>
        <mxCell id="-KVNnS1zJck9LHDw2q6c-10" value="" style="outlineConnect=0;dashed=0;verticalLabelPosition=bottom;verticalAlign=top;align=center;html=1;shape=mxgraph.aws3.cloudwatch;fillColor=#759C3E;gradientColor=none;" vertex="1" parent="1">
          <mxGeometry x="650" y="67" width="62.5" height="70.45" as="geometry" />
        </mxCell>
        <mxCell id="-KVNnS1zJck9LHDw2q6c-12" value="Auto scaling group" style="text;html=1;strokeColor=none;fillColor=none;align=center;verticalAlign=middle;whiteSpace=wrap;rounded=0;" vertex="1" parent="1">
          <mxGeometry x="253.5" y="330" width="130" height="30" as="geometry" />
        </mxCell>
        <mxCell id="-KVNnS1zJck9LHDw2q6c-13" value="application load balancer" style="text;html=1;strokeColor=none;fillColor=none;align=center;verticalAlign=middle;whiteSpace=wrap;rounded=0;" vertex="1" parent="1">
          <mxGeometry x="240" y="200" width="170" height="30" as="geometry" />
        </mxCell>
        <mxCell id="-KVNnS1zJck9LHDw2q6c-14" value="EC2" style="text;html=1;strokeColor=none;fillColor=none;align=center;verticalAlign=middle;whiteSpace=wrap;rounded=0;" vertex="1" parent="1">
          <mxGeometry x="340.51" y="375" width="60" height="30" as="geometry" />
        </mxCell>
        <mxCell id="-KVNnS1zJck9LHDw2q6c-19" value="cloudwatch" style="text;html=1;strokeColor=none;fillColor=none;align=center;verticalAlign=middle;whiteSpace=wrap;rounded=0;" vertex="1" parent="1">
          <mxGeometry x="580" y="80" width="60" height="30" as="geometry" />
        </mxCell>
      </root>
    </mxGraphModel>
  </diagram>
</mxfile>
